<svg version="1.2" xmlns="http://www.w3.org/2000/svg" viewBox="0 0 690 690" width="690" height="690"><style>.a{fill:#007590}</style><path class="a" d="m400.9 569.3q-7.2 5-10 19.5-2.8 14.6-3.1 32.7-0.3 18.2 0.3 34.4h-199q1.1-10.6 1.9-25.1 0.9-14.6 0.9-31.9 0-19-2.8-30.2-3.4-14.5-15.7-30.7-12.3-16.3-29.1-34.4-16.7-18.2-35.2-39.7-18.4-21.5-34.6-47.3-23-35.2-35.5-80.5-12.6-45.2-3.7-102.8 1.7-9.5 5.1-25.7 3.3-16.2 10.6-36.1 7.2-19.8 19.8-40 12.6-20.1 31.6-38 16.2-14.5 39.7-29 23.5-14.6 48.1-20.7 52-12.9 105.9-8.4 54 4.5 99.8 31.9 33.5 20.6 52.8 48.9 19.3 28.2 27.4 56.4 8.1 28.3 8.1 50.1 0 5-0.8 15.9-0.9 10.9-0.9 21.8 0 10.9 2.8 17 5.1 9 13.7 16.5 8.7 7.6 17.7 14.3 8.9 6.7 14.5 14 5.6 7.2 4.5 16.2-1.2 10.6-8.4 16.8-7.3 6.1-11.2 10-2.2 2.3-3.4 5.3-1.1 3.1 0.6 9.2 1.7 6.2 4.5 10.1 2.8 3.9 2.2 9.5-1.1 8.4-6.4 12-5.3 3.7-15.4 7-14 5.1-27.1 7.8-13.1 2.8-16.5 6.8-2.8 5 3.1 8.3 5.8 3.4 15.3 2.8 20.7-0.5 27.2-1.4 6.4-0.8 11.4 0.9 6.2 2.8 5.9 8.6-0.3 5.9-2.8 12.1-2.5 6.1-3.6 7.8-4 6.1-2.8 14.8 1.1 8.7 2.2 18.2 1.1 9.5-0.8 19.8-2 10.4-12.1 21-5.5 6.1-16.2 8.1-10.6 1.9-17.9 2.5-7.8 1.1-20.4 2.2-12.5 1.2-24.6 3.7-12 2.5-17.6 7zm148.7-184q3.4 0 6.2-2.2l79.4-52q3.9-2.8 5-7.5 1.1-4.8-1.7-8.7-2.8-3.9-7.2-4.8-4.5-0.8-8.4 1.4l-79.4 52.6q-4.5 2.8-5.3 7.5-0.9 4.8 1.9 8.7 3.4 5 9.5 5zm79.4 141.5q6.2 0 9.5-5.1 2.8-3.9 2-8.6-0.9-4.8-5.3-7.6l-79.4-52q-3.9-2.8-8.4-1.9-4.5 0.8-7.3 4.7-2.8 4.5-1.9 9 0.8 4.5 5.3 7.2l79.4 52.6q2.8 1.7 6.1 1.7zm-76.6-99.5l95.1-1.7q4.4 0 7.8-3.4 3.3-3.3 3.3-8.4 0-4.4-3.3-7.8-3.4-3.3-8.4-3.3l-95 1.6q-4.5 0-7.9 3.4-3.3 3.4-3.3 8.4 0 4.5 3.3 7.8 3.4 3.4 8.4 3.4z"/></svg>